# xmcd
#
# Track frame offsets:
#	150
#	16215
#	34165
#	48117
#	64225
#	80427
#	93555
#	105110
#	120840
#	135985
#	150602
#	165617
#	177330
#	188447
#	205845
#	219312
#	232460
#	253217
#	267032
#	280307
#	293725
#	309615
#
# Disc length: 4292 seconds
# Revision: 0
# Processed by: cddbd v1.5.2PL0 Copyright (c) Steve Scherf et al.
# Submitted via: dBpowerAMP V12.0
#
DISCID=2910c216
DTITLE=Various Artist - TM Century GoldDisc 2028N
DYEAR=1991
DGENRE=Country
TTITLE0=Garth Brooks - The Thunder Rolls
TTITLE1=The Judds - One Hundred And Two
TTITLE2=Mike Reid - Till You Were Gone
TTITLE3=Pam Tillis - One Of Those Things
TTITLE4=Randy Travis - Point Of Light
TTITLE5=Alan Jackson - Don't Rock The Jukebox
TTITLE6=Highway 101 - Bing Bang Boom
TTITLE7=Ricky Van Shelton - I Am A Simple Man
TTITLE8=Billy Dean - Somewhere In My Broken Heart
TTITLE9=Shenandoah - The Moon Over Georgia
TTITLE10=Rob Crosby - She's A Natural
TTITLE11=Travis Tritt - Here's A Quarter (Call Someone Who Cares)
TTITLE12=Marty Stuart - Till I Found You
TTITLE13=Trisha Yearwood - She's In Love With The Boy
TTITLE14=Don Williams - Lord Have Mercy On A Country Boy
TTITLE15=Alabama - Here We Are
TTITLE16=Reba McEntire - Fallin' Out Of Love
TTITLE17=George Strait - You Know Me Better Than That
TTITLE18=Vince Gill - Liza Jane
TTITLE19=Hal Ketchum - Small Town Saturday Night
TTITLE20=Tanya Tucker - Down To My Last Teardrop
TTITLE21=Lee Greenwood - Hopelessly Yours
EXTD=
EXTT0=
EXTT1=
EXTT2=
EXTT3=
EXTT4=
EXTT5=
EXTT6=
EXTT7=
EXTT8=
EXTT9=
EXTT10=
EXTT11=
EXTT12=
EXTT13=
EXTT14=
EXTT15=
EXTT16=
EXTT17=
EXTT18=
EXTT19=
EXTT20=
EXTT21=
PLAYORDER=
